<svg xmlns="http://www.w3.org/2000/svg" viewBox="20 55 190 25" stroke="#000" preserveAspectRatio="xMidYMid meet"><g fill="none" stroke-linecap="round" stroke-linejoin="round"><path d="M24.8 77.6h-.7v-2.1l.1-1.1v-.8l.1-1 .1-1 .4-1.2.1-1.2.5-1.1.4-1.2.4-1.3.4-1.4.6-1.5.5-1.5.8-1.6.7-1.7.7-1.7.7-1.5.6-1.5.6-1.2.5-1 .4-.9.3-.6.2-.6.4-.3.4-.2.1-.4.5-.1.4-.1.3-.2.4-.1h.7l.1.4.4.1v.6l.1.6.1.6v.9l.1.9v2.1l-.1 1.1v1.1l-.1 1.2v1.3l-.1 1.2v1.2l-.1 1.2-.1 1.1v3.1l.1.9.1.8.4.7.1.6.2.6.4.5.1.5.4.4.1.3.4.1.2.4.4.1h2l.7-.4.7-.2.6-.5.7-.5.7-.6.6-.6.8-.7.7-.8.9-.9.9-1 .8-1.1.8-1.2.7-1.3.6-1.3.5-1.5.5-1.5.5-1.6.3-1.5.2-1.5.4-1.5.1-1.3.1-1.3.1-1v-2.7.7l.1.4.1.7.2.8.3.8.1 1.1.1 1.1.5 1.3.1 1.4.4 1.6.2 1.7.4 1.9.2 1.8.4 2.1.2 2.1.5 2.2.1 2.4.5 2.4.3 2.7.2 2.7.5 2.7.1 2.8.1 2.6.4 2.6v7.6l-.4 2.2-.5 2-.4 1.9-.6 1.7-.5 1.3-.6 1.2-.7 1-.7.6-.8.6-.7.1-.9.1h-.8l-.8-.5-.7-.5-.7-.9-.7-1-.7-1.2-.6-1.4-.5-1.7-.4-1.7-.1-1.8-.1-1.7v-3.4l.4-1.6.4-1.5.6-1.3.6-1.1.7-1.2.7-1 .8-1.1.8-1.1 1-1.1.9-1.1.9-1 .9-1.1.9-1 .9-1 .8-1.1 1.2-1 1.1-1.2 1.3-1.3 1.3-1.4 1.4-1.4 1.5-1.4 1.7-1.5 1.6-1.7 1.6-1.7 1.5-1.7 1.3-1.7 1.3-1.8 1-1.9.8-1.8.9-1.8.7-1.7.7-1.7.6-1.7.4-1.6.4-1.6.1-1.6.4-1.4v-2.2l-.2-.8-.3-.6-.4-.4-.5-.4-.5-.1-.6-.2h-1.3l-.7.3-.5.7-.5.7-.6.9-.5 1.3-.5 1.2-.6 1.4-.5 1.7-.4 1.7-.3 1.9-.2 2-.1 1.9v4.1l.4 2 .3 1.8.5 1.6.6 1.4.5 1.2.7 1.1.7 1.1.6.9.8.7.8.7.8.4 1 .4.7.1.8.1h1.4l.7-.5.7-.4.8-.6.7-.8.9-1 .8-1.1.7-1.3.8-1.4.8-1.5.6-1.5.8-1.7.7-1.7.7-1.8.6-1.8.6-1.7.6-1.7.6-1.6.6-1.4.6-1.3.5-1.2.6-.9.7-.8.6-.7.7-.6.5-.4.6-.3.6-.2.6-.1.5-.1h.5l.6.1.5.4.6.4.6.6.6.7.4 1 .4 1.1.3 1.4.1 1.5.4 1.6v1.7l.1 1.7v5.2l-.1 1.6-.1 1.5-.4 1.3-.1 1.1-.4.8-.1.7-.1.4-.1.1v.1h-.1v-1.2l.1-.8.1-1.3.4-1.4.4-1.7.4-1.8.4-1.8.5-1.8.6-1.7.6-1.6.7-1.5.8-1.4.8-1.3.8-1.2.8-1.1.7-1 .7-1 .5-.8.6-.7.5-.6.5-.5.6-.3.5-.1.5-.4.4-.1.3-.1.4-.1v-.1h.4l.1.2.1.3.2.4.1.6.1.6.1.7v10.9l.1.9.1.9.1.9.1.7.4.8v.6l.4.7.1.6.5.6.1.4.5.5.1.4.4.1.2.4h.4l.2.1h1.3l.1-.1.3-.2.1-.4.5-.3.4-.5.4-.7.6-.7.6-.9.6-1.2.7-1.4.7-1.5.7-1.8.7-1.8.8-1.9.7-1.9.8-1.9.9-1.8.8-1.7.9-1.5.8-1.4.5-1 .6-.8.1-.6.5-.3v-.1h.1v1.7l-.1.8-.1 1-.1 1.1-.1 1.2-.1 1.2-.1 1.4-.1 1.3v3.8l.3 1 .2.9.5.9.1.8.5.7.4.6.5.6.6.4.6.2.8.1h.8l.9-.5 1-.7 1.2-.9 1.2-1.2 1.3-1.3 1.3-1.5 1.2-1.5 1.1-1.6 1.2-1.7 1.1-1.8 1.1-1.7 1.1-1.7.7-1.5.7-1.2.5-1 .1-.7.4-.5v-.3.3l.1.6.1.7v1.1l.2 1.2.1 1.5.5 1.7.1 2 .4 2.2v2.4l.4 2.8.1 3.3.3 3.8.1 4.3.1 4.3v9l-.5 4.3-.8 4.3-.7 4-1 3.7-1.1 3.5-1.1 3.3-1.2 3-1.1 2.7-1.2 2.2-1.1 1.9-1 1.5-1 1-1.3.9-1.2.4h-1.3l-1.3-.2-1.4-.8-1.4-1-1.2-1.3-1.1-1.5-.8-1.8-.5-1.9-.1-2-.1-1.9v-1.8l.7-1.8.8-1.8 1.1-2 1.4-2.2 1.7-2.5 1.9-3 2.1-3.5 2.2-4.1 2.8-4.5 3.2-5 4-5.1 4.4-5 4.6-4.8 4.6-4.2 4.6-3.7 4.4-3.4 4.2-3.1 4.2-3 3.4-2.4 3.9-3 2.9-2.2" stroke-width="5.115"/><path d="M76.2 97.7l.1-.1.1-.3.1-.2.2-.3.1-.1v-.2l.1-.1.1-.2.1-.2.1-.2.1-.2.2-.2.1-.1.1-.2.1-.2.2-.2.1-.1.1-.2.1-.2.1-.2.2-.2.1-.2.2-.2.1-.2.2-.2.1-.3.1-.2.1-.2.2-.2.1-.3.1-.2.1-.2.1-.3v-.2l.1-.2.1-.2v-.2l.2-.2v-.3l.1-.2v-.7l.1-.2v-1.6l-.1-.1v-.5h-.1v-.1h-.2l-.1.1v.2l-.1.2v.3l-.1.2v.2l-.1.3v6.4l.1.1v.5l.1.1v.2l.1.1v.1h.1v.1h.1v.1h.1v.1l.1.1h.3l.1-.1.1-.2v-.2l.1-.1v-3 .2h.1v.2l.1.1v.2l.1.1.1.1v.1h.1v.1l.1.1h.3l.1.1h.4l.1-.1h.2l.1-.1h.1l.1-.1.1-.1.2-.1.1-.1.1-.1.2-.1.1-.1.1-.1.1-.2.2-.1.1-.2.1-.1.1-.2v-.2l.1-.1v-.1h.1v-.1.5l.1.1v.4h.1v.1l.1.1v.1l.1.1h.1v.1l.1.1v.1h.1l.1.1.2.1h.4l.2-.1.1-.1.1-.1.2-.1.1-.1.2-.1.1-.2.1-.1.1-.2v-.1l.1-.2v-.5 1.5l.1.2v.3l.1.3v.6l.1.3v.4l.1.3v.4l.1.4v2.7l-.1.4-.1.4-.1.3-.1.3-.2.2-.1.3-.2.2-.2.2-.3.1-.2.1-.3.1h-.7l-.3-.1-.2-.1-.2-.2-.1-.3-.1-.2v-.2l-.1-.3V99l.2-.3.1-.2.1-.3.2-.3.2-.3.2-.3.2-.4.3-.3.3-.4.4-.4.4-.4.4-.4.4-.4.5-.4.4-.5.4-.4.3-.4.4-.4.3-.4.3-.4.4-.3.3-.4.3-.2.2-.3.1-.2.1-.2v-.6h-.2m10.1-.5v0-.4l.2-.4v-.3l.1-.4.1-.3.1-.4.1-.4.2-.4.1-.4.1-.4.2-.4.1-.4.1-.3.1-.4.1-.4.1-.3.1-.3v-.3l.1-.2V82l.1-.2v-.2h.1v.2l.1.1v3.2l-.1.6v1.4l-.1.7v.7l-.2.8-.1.7-.1.8-.1.8-.1.8-.2.8-.1.8-.2.7-.1.8-.2.7-.1.7-.2.8-.2.7-.3.7-.2.5-.2.6-.2.4-.2.4-.2.4-.2.2-.1.1-.1.1h-.2l-.1-.2v-.2l-.1-.3v-.3l-.1-.3v-2.6l.1-.6.2-.5.2-.5.2-.5.3-.5.3-.4.3-.4.3-.5.3-.4.3-.4.4-.5.3-.5.4-.5.3-.4.4-.5.3-.4.3-.4.3-.3.3-.3.1-.2.2-.2.1-.1v-.2l.1-.1.1-.2v.1m1 3.2v-.1m5.8-9.1v-.1.7l-.1.3-.1.3v.4l-.1.5-.1.5-.1.6-.1.6-.1.7-.1.8-.1.7v.8l-.1.7v.7l-.1.7v.6l-.1.6v.5l-.1.5v.4l-.1.3v.4l-.1.1v-.6l.1-.4m-1.9-9v-.2l.2-.3.1-.3.2-.3.2-.2.2-.3.2-.3.2-.3.3-.2.2-.2.2-.3.3-.2.3-.2.3-.2.4-.2.4-.2.4-.1.4-.1h.5l.3-.1h.6l.3.1.1.1.2.1.1.2v.8l-.1.3-.2.3-.2.4-.3.3-.4.5-.4.4-.5.4-.5.3-.4.4-.5.4-.4.4-.4.3-.3.3-.3.2-.2.3-.2.2-.1.1-.1.1v.1l.2-.1m2.7 6.3v-.2" stroke-width=".852"/></g></svg>