<svg viewBox="170 160 180 180" xmlns="http://www.w3.org/2000/svg" stroke="#000"><g fill="none" stroke-linecap="round" stroke-linejoin="round"><path d="M210.4 244.4v-.7l-.5-.6v-1l-.4-1v-1.3l.1-1.3.1-1.6.5-1.8.3-2.3.5-2.6.7-2.9.6-3 1-3.2 1.1-3.2 1.2-3.3 1.2-3.1 1.2-2.8 1.1-2.3 1.1-2 1-1.7.8-1.4.8-1.1.6-.8.4-.5.1-.2.2-.1h.1v.5l.1.7v4.5l-.2 2.5-.1 2.9-.4 3v8.4l.1 2.3.4 2.2.3 2 .6 1.9.6 1.8.8 1.6.8 1.3.8 1.1.8.7.8.3h.8l1-.4 1.1-.8 1.4-1.5 1.4-1.9 1.7-2.4 1.8-2.4 1.8-2.6 1.8-2.5 1.7-2.7 1.6-2.9 1.3-3 1.2-3 .9-2.8.7-2.4.7-2 .4-1.7.4-1.2v-1l.1-.6v-.8.1l.1.7.1.8v1.2l.1 1.6.2 2 .1 2.7.3 3.1.2 3.7.5 4.2.6 4.6.6 5.3.7 5.8.6 6.4.6 6.9.1 7.1.1 7.5v7.7l-.4 7.4-.6 7.2-1.1 6.7-1.4 6.1-1.6 5.4-1.9 4.9-2.3 4.5-2.5 4-2.9 3.4-3.1 2.9-3.2 2.1-3 1.3-2.9.7h-2.7l-2.5-.5-2.3-.9-1.7-1.3-1.3-1.3-.8-1.5-.3-1.9.1-2.4.8-3.1 1.5-4 2-4.8 2.8-5.8 3.1-6.7 4.5-7.8 5-8.3 6.1-8.7 6.4-8.7 6.8-8.3 6.5-7.9 7-7.6 7.1-7.2 6.9-7.2 7-6.8 6.3-6.3 6-5.9 5.4-5.1 5.1-4.8 3.8-3.7 3.9-3.7 1.9-1.9" stroke-width="5.115"/><path d="M264.3 260.3v-1.8l-.1-.3v-.7l-.1-.3-.1-.3v-.3l-.1-.3-.1-.3v-.3l-.1-.2v-.3l-.1-.1v-.1h-.1v-.1h-.1v.1l-.1.1v.6l.1.2v.2l.1.2v.2l.1.2.1.2.1.2v.2l.2.3.1.2.1.3.2.2.1.2.2.1.2.2.1.1.2.1.1.1h.3l.1.1h.1l.1-.1v-.1h.1v-.6l-.1-.2v-.3l-.1-.2v-.2l-.1-.2-.1-.2v-.3h-.1v.1l.1.1v.1l.1.1v.1l.1.1v.1h.1l.1.1.1-.1h.1v-.1l.1-.1v-.4l.1-.2v-.4l.1-.2v-.5.2h.1v.1h.2v.1h.1l.1.1.1.1.1.1.1.1.2.1.1.2.2.2.3.3.2.3.2.3.3.3.3.4.3.4.2.3.2.4.1.4.1.3v1.2l-.1.2-.1.2-.1.1h-.4l-.3-.1-.2-.2-.2-.2-.2-.2-.1-.3-.1-.3-.1-.3v-.3l-.1-.4v-.4l.1-.5v-.4l.1-.5v-.4l.1-.4.1-.3.1-.4.1-.3v-.3m.7-4.5l-.1-.2v-.4l-.2-.5-.1-.4v-.3l-.1-.3v-.3l-.1-.2v-.3.1l.1.1.1.2.1.2.2.4.3.4.3.5.3.5.3.6.4.6.4.6.4.6.3.6.3.6.2.5.2.4v.4l.1.4v.3l-.1.2-.1.1-.1.1h-.4l-.3-.2-.2-.2-.3-.3-.2-.4-.2-.4-.2-.3v-.4l-.1-.4v-.7l.1-.4.1-.3v-.2l.1-.2.1-.2.1-.1v-.1l.2-.2m1.5-.5l-.1.2v.1-.1h.1l.1-.2m.1-5.2l.1.2.3.4.2.4.3.4.2.3.3.4.2.3.2.4.2.3.2.2.1.2.1.1h.1m-3.9-2.6l-.1-.2v-.9l.1-.5.2-.4.2-.3.1-.2.2-.2.2-.2.2-.1h.5l.2.1.1.1.1.3.1.3v.7l-.1.4-.1.4-.1.4-.2.3-.1.4-.1.3-.1.2m2.8.3h-.2" stroke-width=".852"/></g></svg>